<?xml version="1.0" encoding="UTF-8" standalone="no"?>
<!-- Created with Inkscape (http://www.inkscape.org/) -->

<svg
   xmlns:dc="http://purl.org/dc/elements/1.1/"
   xmlns:cc="http://creativecommons.org/ns#"
   xmlns:rdf="http://www.w3.org/1999/02/22-rdf-syntax-ns#"
   xmlns:svg="http://www.w3.org/2000/svg"
   xmlns="http://www.w3.org/2000/svg"
   xmlns:sodipodi="http://sodipodi.sourceforge.net/DTD/sodipodi-0.dtd"
   xmlns:inkscape="http://www.inkscape.org/namespaces/inkscape"
   width="210mm"
   height="297mm"
   viewBox="0 0 210 297"
   version="1.1"
   id="svg8"
   inkscape:version="0.92.4 5da689c313, 2019-01-14"
   sodipodi:docname="key.svg">
  <defs
     id="defs2">
    <inkscape:path-effect
       effect="spiro"
       id="path-effect824"
       is_visible="true" />
  </defs>
  <sodipodi:namedview
     id="base"
     pagecolor="#ffffff"
     bordercolor="#666666"
     borderopacity="1.0"
     inkscape:pageopacity="0.0"
     inkscape:pageshadow="2"
     inkscape:zoom="0.98994949"
     inkscape:cx="376.88332"
     inkscape:cy="650.47612"
     inkscape:document-units="mm"
     inkscape:current-layer="layer1"
     showgrid="false"
     inkscape:window-width="1270"
     inkscape:window-height="1365"
     inkscape:window-x="0"
     inkscape:window-y="32"
     inkscape:window-maximized="0" />
  <metadata
     id="metadata5">
    <rdf:RDF>
      <cc:Work
         rdf:about="">
        <dc:format>image/svg+xml</dc:format>
        <dc:type
           rdf:resource="http://purl.org/dc/dcmitype/StillImage" />
        <dc:title></dc:title>
      </cc:Work>
    </rdf:RDF>
  </metadata>
  <g
     inkscape:label="Layer 1"
     inkscape:groupmode="layer"
     id="layer1">
    <g
       id="g848"
       transform="rotate(-43.363484,127.28348,158.37715)"
       inkscape:export-filename="/home/seb/wip/ld44/images/key.png"
       inkscape:export-xdpi="49.533092"
       inkscape:export-ydpi="49.533092">
      <path
         transform="translate(2.0605468e-6,-0.18378536)"
         sodipodi:nodetypes="cccccccccccc"
         inkscape:original-d="m 168.57736,162.05725 v 11.59786 l -3.67206,-4.40995 -1.87089,2.53906 -3.4745,-3.60813 -3.74178,5.87992 -1.46998,-4.40994 -3.4745,3.60814 v -11.22532 h 15.4544 1.73436 z"
         inkscape:path-effect="#path-effect824"
         inkscape:connector-curvature="0"
         id="path822"
         d="m 168.57736,162.05725 v 11.59786 l -3.67206,-4.40995 -1.87089,2.53906 -3.4745,-3.60813 -3.74178,5.87992 -1.46998,-4.40994 -3.4745,3.60814 v -11.22532 c 5.15092,0.0923 10.30348,0.0923 15.4544,0 0.57811,-0.0104 1.15657,-0.0219 1.73436,0 0.1718,0.007 0.34348,0.016 0.51495,0.0284 z"
         style="opacity:1;fill:#a6a623;fill-opacity:1;fill-rule:nonzero;stroke:#000000;stroke-width:0.5;stroke-linecap:butt;stroke-linejoin:miter;stroke-miterlimit:4;stroke-dasharray:none;stroke-dashoffset:0;stroke-opacity:1" />
      <rect
         y="155.82588"
         x="112.44791"
         height="6.0476193"
         width="56.129463"
         id="rect820"
         style="opacity:1;fill:#a6a623;fill-opacity:1;fill-rule:nonzero;stroke:#000000;stroke-width:0.5;stroke-linecap:butt;stroke-linejoin:miter;stroke-miterlimit:4;stroke-dasharray:none;stroke-dashoffset:0;stroke-opacity:1" />
      <path
         inkscape:connector-curvature="0"
         id="path815"
         transform="scale(0.26458333)"
         d="M 380.42578,530.37695 A 55.425852,68.214284 0 0 0 325,598.5918 a 55.425852,68.214284 0 0 0 55.42578,68.21289 55.425852,68.214284 0 0 0 55.42578,-68.21289 55.425852,68.214284 0 0 0 -55.42578,-68.21485 z m 0,22.72852 a 36.900203,45.485853 0 0 1 36.90039,45.48633 36.900203,45.485853 0 0 1 -36.90039,45.48437 36.900203,45.485853 0 0 1 -36.90039,-45.48437 36.900203,45.485853 0 0 1 36.90039,-45.48633 z"
         style="opacity:1;fill:#a6a623;fill-opacity:1;fill-rule:nonzero;stroke:#000000;stroke-width:1.88976383;stroke-linecap:butt;stroke-linejoin:miter;stroke-miterlimit:4;stroke-dasharray:none;stroke-dashoffset:0;stroke-opacity:1" />
    </g>
  </g>
</svg>
